<mxfile host="app.diagrams.net" modified="2023-05-14T13:05:28.405Z" agent="Mozilla/5.0 (Macintosh; Intel Mac OS X 10_15_7) AppleWebKit/537.36 (KHTML, like Gecko) Chrome/113.0.0.0 Safari/537.36" etag="c5_k3A10T2HYZ-OnQzjZ" version="21.2.9" type="device">
  <diagram id="C5RBs43oDa-KdzZeNtuy" name="Page-1">
    <mxGraphModel dx="1468" dy="849" grid="1" gridSize="10" guides="1" tooltips="1" connect="1" arrows="1" fold="1" page="1" pageScale="1" pageWidth="1169" pageHeight="1654" math="0" shadow="0">
      <root>
        <mxCell id="WIyWlLk6GJQsqaUBKTNV-0" />
        <mxCell id="WIyWlLk6GJQsqaUBKTNV-1" parent="WIyWlLk6GJQsqaUBKTNV-0" />
        <mxCell id="MnsjPkY1ZT94BCYLp9gL-2" value="AdministratorServer" style="swimlane;fontStyle=1;align=center;verticalAlign=top;childLayout=stackLayout;horizontal=1;startSize=26;horizontalStack=0;resizeParent=1;resizeParentMax=0;resizeLast=0;collapsible=1;marginBottom=0;whiteSpace=wrap;html=1;strokeWidth=2;" vertex="1" parent="WIyWlLk6GJQsqaUBKTNV-1">
          <mxGeometry x="450" y="310" width="246" height="268" as="geometry" />
        </mxCell>
        <mxCell id="MnsjPkY1ZT94BCYLp9gL-8" value="- instance: AdministratorServer" style="text;strokeColor=none;fillColor=none;align=left;verticalAlign=top;spacingLeft=4;spacingRight=4;overflow=hidden;rotatable=0;points=[[0,0.5],[1,0.5]];portConstraint=eastwest;whiteSpace=wrap;html=1;" vertex="1" parent="MnsjPkY1ZT94BCYLp9gL-2">
          <mxGeometry y="26" width="246" height="26" as="geometry" />
        </mxCell>
        <mxCell id="MnsjPkY1ZT94BCYLp9gL-3" value="- city: City" style="text;strokeColor=none;fillColor=none;align=left;verticalAlign=top;spacingLeft=4;spacingRight=4;overflow=hidden;rotatable=0;points=[[0,0.5],[1,0.5]];portConstraint=eastwest;whiteSpace=wrap;html=1;" vertex="1" parent="MnsjPkY1ZT94BCYLp9gL-2">
          <mxGeometry y="52" width="246" height="26" as="geometry" />
        </mxCell>
        <mxCell id="MnsjPkY1ZT94BCYLp9gL-6" value="- robots: List&amp;lt;RegisteredRobots&amp;gt;" style="text;strokeColor=none;fillColor=none;align=left;verticalAlign=top;spacingLeft=4;spacingRight=4;overflow=hidden;rotatable=0;points=[[0,0.5],[1,0.5]];portConstraint=eastwest;whiteSpace=wrap;html=1;" vertex="1" parent="MnsjPkY1ZT94BCYLp9gL-2">
          <mxGeometry y="78" width="246" height="26" as="geometry" />
        </mxCell>
        <mxCell id="MnsjPkY1ZT94BCYLp9gL-7" value="- statistics: Statistics" style="text;strokeColor=none;fillColor=none;align=left;verticalAlign=top;spacingLeft=4;spacingRight=4;overflow=hidden;rotatable=0;points=[[0,0.5],[1,0.5]];portConstraint=eastwest;whiteSpace=wrap;html=1;" vertex="1" parent="MnsjPkY1ZT94BCYLp9gL-2">
          <mxGeometry y="104" width="246" height="26" as="geometry" />
        </mxCell>
        <mxCell id="MnsjPkY1ZT94BCYLp9gL-9" value="- httpServerThread: Thread" style="text;strokeColor=none;fillColor=none;align=left;verticalAlign=top;spacingLeft=4;spacingRight=4;overflow=hidden;rotatable=0;points=[[0,0.5],[1,0.5]];portConstraint=eastwest;whiteSpace=wrap;html=1;" vertex="1" parent="MnsjPkY1ZT94BCYLp9gL-2">
          <mxGeometry y="130" width="246" height="26" as="geometry" />
        </mxCell>
        <mxCell id="MnsjPkY1ZT94BCYLp9gL-4" value="" style="line;strokeWidth=1;fillColor=none;align=left;verticalAlign=middle;spacingTop=-1;spacingLeft=3;spacingRight=3;rotatable=0;labelPosition=right;points=[];portConstraint=eastwest;strokeColor=inherit;" vertex="1" parent="MnsjPkY1ZT94BCYLp9gL-2">
          <mxGeometry y="156" width="246" height="8" as="geometry" />
        </mxCell>
        <mxCell id="MnsjPkY1ZT94BCYLp9gL-5" value="+ getInstance(): AdministratorServer" style="text;strokeColor=none;fillColor=none;align=left;verticalAlign=top;spacingLeft=4;spacingRight=4;overflow=hidden;rotatable=0;points=[[0,0.5],[1,0.5]];portConstraint=eastwest;whiteSpace=wrap;html=1;" vertex="1" parent="MnsjPkY1ZT94BCYLp9gL-2">
          <mxGeometry y="164" width="246" height="26" as="geometry" />
        </mxCell>
        <mxCell id="MnsjPkY1ZT94BCYLp9gL-10" value="+ addRobot(RobotBean): InsertRobotBean" style="text;strokeColor=none;fillColor=none;align=left;verticalAlign=top;spacingLeft=4;spacingRight=4;overflow=hidden;rotatable=0;points=[[0,0.5],[1,0.5]];portConstraint=eastwest;whiteSpace=wrap;html=1;" vertex="1" parent="MnsjPkY1ZT94BCYLp9gL-2">
          <mxGeometry y="190" width="246" height="26" as="geometry" />
        </mxCell>
        <mxCell id="MnsjPkY1ZT94BCYLp9gL-11" value="+ getRobots(): List&amp;lt;RobotBean&amp;gt;" style="text;strokeColor=none;fillColor=none;align=left;verticalAlign=top;spacingLeft=4;spacingRight=4;overflow=hidden;rotatable=0;points=[[0,0.5],[1,0.5]];portConstraint=eastwest;whiteSpace=wrap;html=1;" vertex="1" parent="MnsjPkY1ZT94BCYLp9gL-2">
          <mxGeometry y="216" width="246" height="26" as="geometry" />
        </mxCell>
        <mxCell id="MnsjPkY1ZT94BCYLp9gL-12" value="+ removeRobotById(int):" style="text;strokeColor=none;fillColor=none;align=left;verticalAlign=top;spacingLeft=4;spacingRight=4;overflow=hidden;rotatable=0;points=[[0,0.5],[1,0.5]];portConstraint=eastwest;whiteSpace=wrap;html=1;" vertex="1" parent="MnsjPkY1ZT94BCYLp9gL-2">
          <mxGeometry y="242" width="246" height="26" as="geometry" />
        </mxCell>
        <mxCell id="MnsjPkY1ZT94BCYLp9gL-13" value="City" style="swimlane;fontStyle=1;align=center;verticalAlign=top;childLayout=stackLayout;horizontal=1;startSize=26;horizontalStack=0;resizeParent=1;resizeParentMax=0;resizeLast=0;collapsible=1;marginBottom=0;whiteSpace=wrap;html=1;" vertex="1" parent="WIyWlLk6GJQsqaUBKTNV-1">
          <mxGeometry x="160" y="210" width="240" height="216" as="geometry" />
        </mxCell>
        <mxCell id="MnsjPkY1ZT94BCYLp9gL-14" value="- id: int" style="text;strokeColor=none;fillColor=none;align=left;verticalAlign=top;spacingLeft=4;spacingRight=4;overflow=hidden;rotatable=0;points=[[0,0.5],[1,0.5]];portConstraint=eastwest;whiteSpace=wrap;html=1;" vertex="1" parent="MnsjPkY1ZT94BCYLp9gL-13">
          <mxGeometry y="26" width="240" height="26" as="geometry" />
        </mxCell>
        <mxCell id="MnsjPkY1ZT94BCYLp9gL-20" value="- name: String" style="text;strokeColor=none;fillColor=none;align=left;verticalAlign=top;spacingLeft=4;spacingRight=4;overflow=hidden;rotatable=0;points=[[0,0.5],[1,0.5]];portConstraint=eastwest;whiteSpace=wrap;html=1;" vertex="1" parent="MnsjPkY1ZT94BCYLp9gL-13">
          <mxGeometry y="52" width="240" height="26" as="geometry" />
        </mxCell>
        <mxCell id="MnsjPkY1ZT94BCYLp9gL-19" value="- host: String" style="text;strokeColor=none;fillColor=none;align=left;verticalAlign=top;spacingLeft=4;spacingRight=4;overflow=hidden;rotatable=0;points=[[0,0.5],[1,0.5]];portConstraint=eastwest;whiteSpace=wrap;html=1;" vertex="1" parent="MnsjPkY1ZT94BCYLp9gL-13">
          <mxGeometry y="78" width="240" height="26" as="geometry" />
        </mxCell>
        <mxCell id="MnsjPkY1ZT94BCYLp9gL-18" value="- port: int" style="text;strokeColor=none;fillColor=none;align=left;verticalAlign=top;spacingLeft=4;spacingRight=4;overflow=hidden;rotatable=0;points=[[0,0.5],[1,0.5]];portConstraint=eastwest;whiteSpace=wrap;html=1;" vertex="1" parent="MnsjPkY1ZT94BCYLp9gL-13">
          <mxGeometry y="104" width="240" height="26" as="geometry" />
        </mxCell>
        <mxCell id="MnsjPkY1ZT94BCYLp9gL-17" value="- districts: List&amp;lt;District&amp;gt;" style="text;strokeColor=none;fillColor=none;align=left;verticalAlign=top;spacingLeft=4;spacingRight=4;overflow=hidden;rotatable=0;points=[[0,0.5],[1,0.5]];portConstraint=eastwest;whiteSpace=wrap;html=1;" vertex="1" parent="MnsjPkY1ZT94BCYLp9gL-13">
          <mxGeometry y="130" width="240" height="26" as="geometry" />
        </mxCell>
        <mxCell id="MnsjPkY1ZT94BCYLp9gL-15" value="" style="line;strokeWidth=1;fillColor=none;align=left;verticalAlign=middle;spacingTop=-1;spacingLeft=3;spacingRight=3;rotatable=0;labelPosition=right;points=[];portConstraint=eastwest;strokeColor=inherit;" vertex="1" parent="MnsjPkY1ZT94BCYLp9gL-13">
          <mxGeometry y="156" width="240" height="8" as="geometry" />
        </mxCell>
        <mxCell id="MnsjPkY1ZT94BCYLp9gL-16" value="+ getDistrictById(int): District" style="text;strokeColor=none;fillColor=none;align=left;verticalAlign=top;spacingLeft=4;spacingRight=4;overflow=hidden;rotatable=0;points=[[0,0.5],[1,0.5]];portConstraint=eastwest;whiteSpace=wrap;html=1;" vertex="1" parent="MnsjPkY1ZT94BCYLp9gL-13">
          <mxGeometry y="164" width="240" height="26" as="geometry" />
        </mxCell>
        <mxCell id="MnsjPkY1ZT94BCYLp9gL-21" value="+ getDistrictByPosition(Position): District" style="text;strokeColor=none;fillColor=none;align=left;verticalAlign=top;spacingLeft=4;spacingRight=4;overflow=hidden;rotatable=0;points=[[0,0.5],[1,0.5]];portConstraint=eastwest;whiteSpace=wrap;html=1;" vertex="1" parent="MnsjPkY1ZT94BCYLp9gL-13">
          <mxGeometry y="190" width="240" height="26" as="geometry" />
        </mxCell>
        <mxCell id="MnsjPkY1ZT94BCYLp9gL-22" style="edgeStyle=orthogonalEdgeStyle;rounded=0;orthogonalLoop=1;jettySize=auto;html=1;exitX=0;exitY=0.5;exitDx=0;exitDy=0;" edge="1" parent="WIyWlLk6GJQsqaUBKTNV-1" source="MnsjPkY1ZT94BCYLp9gL-3" target="MnsjPkY1ZT94BCYLp9gL-13">
          <mxGeometry relative="1" as="geometry" />
        </mxCell>
        <mxCell id="MnsjPkY1ZT94BCYLp9gL-23" value="District" style="swimlane;fontStyle=1;align=center;verticalAlign=top;childLayout=stackLayout;horizontal=1;startSize=26;horizontalStack=0;resizeParent=1;resizeParentMax=0;resizeLast=0;collapsible=1;marginBottom=0;whiteSpace=wrap;html=1;" vertex="1" parent="WIyWlLk6GJQsqaUBKTNV-1">
          <mxGeometry x="20" y="20" width="200" height="164" as="geometry" />
        </mxCell>
        <mxCell id="MnsjPkY1ZT94BCYLp9gL-24" value="- id: int" style="text;strokeColor=none;fillColor=none;align=left;verticalAlign=top;spacingLeft=4;spacingRight=4;overflow=hidden;rotatable=0;points=[[0,0.5],[1,0.5]];portConstraint=eastwest;whiteSpace=wrap;html=1;" vertex="1" parent="MnsjPkY1ZT94BCYLp9gL-23">
          <mxGeometry y="26" width="200" height="26" as="geometry" />
        </mxCell>
        <mxCell id="MnsjPkY1ZT94BCYLp9gL-28" value="- robots: List&amp;lt;RegisteredRobots&amp;gt;" style="text;strokeColor=none;fillColor=none;align=left;verticalAlign=top;spacingLeft=4;spacingRight=4;overflow=hidden;rotatable=0;points=[[0,0.5],[1,0.5]];portConstraint=eastwest;whiteSpace=wrap;html=1;" vertex="1" parent="MnsjPkY1ZT94BCYLp9gL-23">
          <mxGeometry y="52" width="200" height="26" as="geometry" />
        </mxCell>
        <mxCell id="MnsjPkY1ZT94BCYLp9gL-25" value="" style="line;strokeWidth=1;fillColor=none;align=left;verticalAlign=middle;spacingTop=-1;spacingLeft=3;spacingRight=3;rotatable=0;labelPosition=right;points=[];portConstraint=eastwest;strokeColor=inherit;" vertex="1" parent="MnsjPkY1ZT94BCYLp9gL-23">
          <mxGeometry y="78" width="200" height="8" as="geometry" />
        </mxCell>
        <mxCell id="MnsjPkY1ZT94BCYLp9gL-30" value="+ addRobot(RegisteredRobot)" style="text;strokeColor=none;fillColor=none;align=left;verticalAlign=top;spacingLeft=4;spacingRight=4;overflow=hidden;rotatable=0;points=[[0,0.5],[1,0.5]];portConstraint=eastwest;whiteSpace=wrap;html=1;" vertex="1" parent="MnsjPkY1ZT94BCYLp9gL-23">
          <mxGeometry y="86" width="200" height="26" as="geometry" />
        </mxCell>
        <mxCell id="MnsjPkY1ZT94BCYLp9gL-26" value="+ removeRobot(int)" style="text;strokeColor=none;fillColor=none;align=left;verticalAlign=top;spacingLeft=4;spacingRight=4;overflow=hidden;rotatable=0;points=[[0,0.5],[1,0.5]];portConstraint=eastwest;whiteSpace=wrap;html=1;" vertex="1" parent="MnsjPkY1ZT94BCYLp9gL-23">
          <mxGeometry y="112" width="200" height="26" as="geometry" />
        </mxCell>
        <mxCell id="MnsjPkY1ZT94BCYLp9gL-29" value="+ getRandomPosition(): Position" style="text;strokeColor=none;fillColor=none;align=left;verticalAlign=top;spacingLeft=4;spacingRight=4;overflow=hidden;rotatable=0;points=[[0,0.5],[1,0.5]];portConstraint=eastwest;whiteSpace=wrap;html=1;" vertex="1" parent="MnsjPkY1ZT94BCYLp9gL-23">
          <mxGeometry y="138" width="200" height="26" as="geometry" />
        </mxCell>
        <mxCell id="MnsjPkY1ZT94BCYLp9gL-31" style="edgeStyle=orthogonalEdgeStyle;rounded=0;orthogonalLoop=1;jettySize=auto;html=1;exitX=0;exitY=0.5;exitDx=0;exitDy=0;" edge="1" parent="WIyWlLk6GJQsqaUBKTNV-1" source="MnsjPkY1ZT94BCYLp9gL-17" target="MnsjPkY1ZT94BCYLp9gL-23">
          <mxGeometry relative="1" as="geometry" />
        </mxCell>
        <mxCell id="MnsjPkY1ZT94BCYLp9gL-53" style="edgeStyle=orthogonalEdgeStyle;rounded=0;orthogonalLoop=1;jettySize=auto;html=1;exitX=0.5;exitY=0;exitDx=0;exitDy=0;endArrow=block;endFill=0;" edge="1" parent="WIyWlLk6GJQsqaUBKTNV-1" source="MnsjPkY1ZT94BCYLp9gL-32" target="MnsjPkY1ZT94BCYLp9gL-47">
          <mxGeometry relative="1" as="geometry" />
        </mxCell>
        <mxCell id="MnsjPkY1ZT94BCYLp9gL-32" value="RegisteredRobot" style="swimlane;fontStyle=1;align=center;verticalAlign=top;childLayout=stackLayout;horizontal=1;startSize=26;horizontalStack=0;resizeParent=1;resizeParentMax=0;resizeLast=0;collapsible=1;marginBottom=0;whiteSpace=wrap;html=1;" vertex="1" parent="WIyWlLk6GJQsqaUBKTNV-1">
          <mxGeometry x="650" y="200" width="160" height="86" as="geometry" />
        </mxCell>
        <mxCell id="MnsjPkY1ZT94BCYLp9gL-37" value="- position: Position" style="text;strokeColor=none;fillColor=none;align=left;verticalAlign=top;spacingLeft=4;spacingRight=4;overflow=hidden;rotatable=0;points=[[0,0.5],[1,0.5]];portConstraint=eastwest;whiteSpace=wrap;html=1;" vertex="1" parent="MnsjPkY1ZT94BCYLp9gL-32">
          <mxGeometry y="26" width="160" height="26" as="geometry" />
        </mxCell>
        <mxCell id="MnsjPkY1ZT94BCYLp9gL-36" value="- district: District" style="text;strokeColor=none;fillColor=none;align=left;verticalAlign=top;spacingLeft=4;spacingRight=4;overflow=hidden;rotatable=0;points=[[0,0.5],[1,0.5]];portConstraint=eastwest;whiteSpace=wrap;html=1;" vertex="1" parent="MnsjPkY1ZT94BCYLp9gL-32">
          <mxGeometry y="52" width="160" height="26" as="geometry" />
        </mxCell>
        <mxCell id="MnsjPkY1ZT94BCYLp9gL-34" value="" style="line;strokeWidth=1;fillColor=none;align=left;verticalAlign=middle;spacingTop=-1;spacingLeft=3;spacingRight=3;rotatable=0;labelPosition=right;points=[];portConstraint=eastwest;strokeColor=inherit;" vertex="1" parent="MnsjPkY1ZT94BCYLp9gL-32">
          <mxGeometry y="78" width="160" height="8" as="geometry" />
        </mxCell>
        <mxCell id="MnsjPkY1ZT94BCYLp9gL-40" style="edgeStyle=orthogonalEdgeStyle;rounded=0;orthogonalLoop=1;jettySize=auto;html=1;exitX=1;exitY=0.5;exitDx=0;exitDy=0;" edge="1" parent="WIyWlLk6GJQsqaUBKTNV-1" source="MnsjPkY1ZT94BCYLp9gL-6" target="MnsjPkY1ZT94BCYLp9gL-32">
          <mxGeometry relative="1" as="geometry" />
        </mxCell>
        <mxCell id="MnsjPkY1ZT94BCYLp9gL-140" value="Statistics" style="shape=folder;fontStyle=1;spacingTop=10;tabWidth=40;tabHeight=14;tabPosition=left;html=1;whiteSpace=wrap;verticalAlign=top;align=left;" vertex="1" parent="WIyWlLk6GJQsqaUBKTNV-1">
          <mxGeometry x="740" y="360" width="850" height="430" as="geometry" />
        </mxCell>
        <mxCell id="MnsjPkY1ZT94BCYLp9gL-41" value="REST" style="shape=folder;fontStyle=1;spacingTop=10;tabWidth=40;tabHeight=14;tabPosition=left;html=1;whiteSpace=wrap;verticalAlign=top;align=left;" vertex="1" parent="WIyWlLk6GJQsqaUBKTNV-1">
          <mxGeometry x="940" y="30" width="550" height="330" as="geometry" />
        </mxCell>
        <mxCell id="MnsjPkY1ZT94BCYLp9gL-47" value="&lt;span style=&quot;font-weight: normal;&quot;&gt;&amp;lt;&amp;lt;interface&amp;gt;&amp;gt;&lt;/span&gt;&lt;br&gt;IRobot" style="swimlane;fontStyle=1;align=center;verticalAlign=top;childLayout=stackLayout;horizontal=1;startSize=40;horizontalStack=0;resizeParent=1;resizeParentMax=0;resizeLast=0;collapsible=1;marginBottom=0;whiteSpace=wrap;html=1;" vertex="1" parent="WIyWlLk6GJQsqaUBKTNV-1">
          <mxGeometry x="680" y="10" width="160" height="126" as="geometry" />
        </mxCell>
        <mxCell id="MnsjPkY1ZT94BCYLp9gL-48" value="id: int" style="text;strokeColor=none;fillColor=none;align=left;verticalAlign=top;spacingLeft=4;spacingRight=4;overflow=hidden;rotatable=0;points=[[0,0.5],[1,0.5]];portConstraint=eastwest;whiteSpace=wrap;html=1;" vertex="1" parent="MnsjPkY1ZT94BCYLp9gL-47">
          <mxGeometry y="40" width="160" height="26" as="geometry" />
        </mxCell>
        <mxCell id="MnsjPkY1ZT94BCYLp9gL-52" value="ipAddress: String" style="text;strokeColor=none;fillColor=none;align=left;verticalAlign=top;spacingLeft=4;spacingRight=4;overflow=hidden;rotatable=0;points=[[0,0.5],[1,0.5]];portConstraint=eastwest;whiteSpace=wrap;html=1;" vertex="1" parent="MnsjPkY1ZT94BCYLp9gL-47">
          <mxGeometry y="66" width="160" height="26" as="geometry" />
        </mxCell>
        <mxCell id="MnsjPkY1ZT94BCYLp9gL-51" value="port: int" style="text;strokeColor=none;fillColor=none;align=left;verticalAlign=top;spacingLeft=4;spacingRight=4;overflow=hidden;rotatable=0;points=[[0,0.5],[1,0.5]];portConstraint=eastwest;whiteSpace=wrap;html=1;" vertex="1" parent="MnsjPkY1ZT94BCYLp9gL-47">
          <mxGeometry y="92" width="160" height="26" as="geometry" />
        </mxCell>
        <mxCell id="MnsjPkY1ZT94BCYLp9gL-49" value="" style="line;strokeWidth=1;fillColor=none;align=left;verticalAlign=middle;spacingTop=-1;spacingLeft=3;spacingRight=3;rotatable=0;labelPosition=right;points=[];portConstraint=eastwest;strokeColor=inherit;" vertex="1" parent="MnsjPkY1ZT94BCYLp9gL-47">
          <mxGeometry y="118" width="160" height="8" as="geometry" />
        </mxCell>
        <mxCell id="MnsjPkY1ZT94BCYLp9gL-61" style="edgeStyle=orthogonalEdgeStyle;rounded=0;orthogonalLoop=1;jettySize=auto;html=1;exitX=0;exitY=0.25;exitDx=0;exitDy=0;endArrow=block;endFill=0;" edge="1" parent="WIyWlLk6GJQsqaUBKTNV-1" source="MnsjPkY1ZT94BCYLp9gL-57" target="MnsjPkY1ZT94BCYLp9gL-47">
          <mxGeometry relative="1" as="geometry" />
        </mxCell>
        <mxCell id="MnsjPkY1ZT94BCYLp9gL-57" value="RobotBean" style="swimlane;fontStyle=1;align=center;verticalAlign=top;childLayout=stackLayout;horizontal=1;startSize=26;horizontalStack=0;resizeParent=1;resizeParentMax=0;resizeLast=0;collapsible=1;marginBottom=0;whiteSpace=wrap;html=1;" vertex="1" parent="WIyWlLk6GJQsqaUBKTNV-1">
          <mxGeometry x="970" y="70" width="160" height="34" as="geometry" />
        </mxCell>
        <mxCell id="MnsjPkY1ZT94BCYLp9gL-59" value="" style="line;strokeWidth=1;fillColor=none;align=left;verticalAlign=middle;spacingTop=-1;spacingLeft=3;spacingRight=3;rotatable=0;labelPosition=right;points=[];portConstraint=eastwest;strokeColor=inherit;" vertex="1" parent="MnsjPkY1ZT94BCYLp9gL-57">
          <mxGeometry y="26" width="160" height="8" as="geometry" />
        </mxCell>
        <mxCell id="MnsjPkY1ZT94BCYLp9gL-62" value="InsertRobotBean" style="swimlane;fontStyle=1;align=center;verticalAlign=top;childLayout=stackLayout;horizontal=1;startSize=26;horizontalStack=0;resizeParent=1;resizeParentMax=0;resizeLast=0;collapsible=1;marginBottom=0;whiteSpace=wrap;html=1;" vertex="1" parent="WIyWlLk6GJQsqaUBKTNV-1">
          <mxGeometry x="970" y="136" width="160" height="112" as="geometry" />
        </mxCell>
        <mxCell id="MnsjPkY1ZT94BCYLp9gL-63" value="- x: int" style="text;strokeColor=none;fillColor=none;align=left;verticalAlign=top;spacingLeft=4;spacingRight=4;overflow=hidden;rotatable=0;points=[[0,0.5],[1,0.5]];portConstraint=eastwest;whiteSpace=wrap;html=1;" vertex="1" parent="MnsjPkY1ZT94BCYLp9gL-62">
          <mxGeometry y="26" width="160" height="26" as="geometry" />
        </mxCell>
        <mxCell id="MnsjPkY1ZT94BCYLp9gL-67" value="- y: int" style="text;strokeColor=none;fillColor=none;align=left;verticalAlign=top;spacingLeft=4;spacingRight=4;overflow=hidden;rotatable=0;points=[[0,0.5],[1,0.5]];portConstraint=eastwest;whiteSpace=wrap;html=1;" vertex="1" parent="MnsjPkY1ZT94BCYLp9gL-62">
          <mxGeometry y="52" width="160" height="26" as="geometry" />
        </mxCell>
        <mxCell id="MnsjPkY1ZT94BCYLp9gL-66" value="- robots: List&amp;lt;RobotBean&amp;gt;" style="text;strokeColor=none;fillColor=none;align=left;verticalAlign=top;spacingLeft=4;spacingRight=4;overflow=hidden;rotatable=0;points=[[0,0.5],[1,0.5]];portConstraint=eastwest;whiteSpace=wrap;html=1;" vertex="1" parent="MnsjPkY1ZT94BCYLp9gL-62">
          <mxGeometry y="78" width="160" height="26" as="geometry" />
        </mxCell>
        <mxCell id="MnsjPkY1ZT94BCYLp9gL-64" value="" style="line;strokeWidth=1;fillColor=none;align=left;verticalAlign=middle;spacingTop=-1;spacingLeft=3;spacingRight=3;rotatable=0;labelPosition=right;points=[];portConstraint=eastwest;strokeColor=inherit;" vertex="1" parent="MnsjPkY1ZT94BCYLp9gL-62">
          <mxGeometry y="104" width="160" height="8" as="geometry" />
        </mxCell>
        <mxCell id="MnsjPkY1ZT94BCYLp9gL-69" style="edgeStyle=orthogonalEdgeStyle;rounded=0;orthogonalLoop=1;jettySize=auto;html=1;exitX=1;exitY=0.5;exitDx=0;exitDy=0;" edge="1" parent="WIyWlLk6GJQsqaUBKTNV-1" source="MnsjPkY1ZT94BCYLp9gL-66" target="MnsjPkY1ZT94BCYLp9gL-57">
          <mxGeometry relative="1" as="geometry">
            <Array as="points">
              <mxPoint x="1130" y="230" />
              <mxPoint x="1150" y="230" />
              <mxPoint x="1150" y="120" />
              <mxPoint x="1050" y="120" />
            </Array>
          </mxGeometry>
        </mxCell>
        <mxCell id="MnsjPkY1ZT94BCYLp9gL-72" value="&lt;span style=&quot;font-weight: normal;&quot;&gt;&amp;lt;&amp;lt;/robots&amp;gt;&amp;gt;&lt;/span&gt;&lt;br&gt;RobotService" style="swimlane;fontStyle=1;align=center;verticalAlign=top;childLayout=stackLayout;horizontal=1;startSize=45;horizontalStack=0;resizeParent=1;resizeParentMax=0;resizeLast=0;collapsible=1;marginBottom=0;whiteSpace=wrap;html=1;" vertex="1" parent="WIyWlLk6GJQsqaUBKTNV-1">
          <mxGeometry x="1190" y="79" width="250" height="105" as="geometry" />
        </mxCell>
        <mxCell id="MnsjPkY1ZT94BCYLp9gL-74" value="" style="line;strokeWidth=1;fillColor=none;align=left;verticalAlign=middle;spacingTop=-1;spacingLeft=3;spacingRight=3;rotatable=0;labelPosition=right;points=[];portConstraint=eastwest;strokeColor=inherit;" vertex="1" parent="MnsjPkY1ZT94BCYLp9gL-72">
          <mxGeometry y="45" width="250" height="8" as="geometry" />
        </mxCell>
        <mxCell id="MnsjPkY1ZT94BCYLp9gL-75" value="POST/{cityId}/insert (id,ip,port): RobotBean" style="text;strokeColor=none;fillColor=none;align=left;verticalAlign=top;spacingLeft=4;spacingRight=4;overflow=hidden;rotatable=0;points=[[0,0.5],[1,0.5]];portConstraint=eastwest;whiteSpace=wrap;html=1;" vertex="1" parent="MnsjPkY1ZT94BCYLp9gL-72">
          <mxGeometry y="53" width="250" height="26" as="geometry" />
        </mxCell>
        <mxCell id="MnsjPkY1ZT94BCYLp9gL-76" value="DELETE/{cityId}/remove/{id}" style="text;strokeColor=none;fillColor=none;align=left;verticalAlign=top;spacingLeft=4;spacingRight=4;overflow=hidden;rotatable=0;points=[[0,0.5],[1,0.5]];portConstraint=eastwest;whiteSpace=wrap;html=1;" vertex="1" parent="MnsjPkY1ZT94BCYLp9gL-72">
          <mxGeometry y="79" width="250" height="26" as="geometry" />
        </mxCell>
        <mxCell id="MnsjPkY1ZT94BCYLp9gL-77" value="&lt;span style=&quot;font-weight: normal;&quot;&gt;&amp;lt;&amp;lt;/clients&amp;gt;&amp;gt;&lt;/span&gt;&lt;br&gt;ClientService" style="swimlane;fontStyle=1;align=center;verticalAlign=top;childLayout=stackLayout;horizontal=1;startSize=45;horizontalStack=0;resizeParent=1;resizeParentMax=0;resizeLast=0;collapsible=1;marginBottom=0;whiteSpace=wrap;html=1;" vertex="1" parent="WIyWlLk6GJQsqaUBKTNV-1">
          <mxGeometry x="1190" y="200" width="250" height="131" as="geometry" />
        </mxCell>
        <mxCell id="MnsjPkY1ZT94BCYLp9gL-78" value="" style="line;strokeWidth=1;fillColor=none;align=left;verticalAlign=middle;spacingTop=-1;spacingLeft=3;spacingRight=3;rotatable=0;labelPosition=right;points=[];portConstraint=eastwest;strokeColor=inherit;" vertex="1" parent="MnsjPkY1ZT94BCYLp9gL-77">
          <mxGeometry y="45" width="250" height="8" as="geometry" />
        </mxCell>
        <mxCell id="MnsjPkY1ZT94BCYLp9gL-79" value="GET/{cityId}/robots" style="text;strokeColor=none;fillColor=none;align=left;verticalAlign=top;spacingLeft=4;spacingRight=4;overflow=hidden;rotatable=0;points=[[0,0.5],[1,0.5]];portConstraint=eastwest;whiteSpace=wrap;html=1;" vertex="1" parent="MnsjPkY1ZT94BCYLp9gL-77">
          <mxGeometry y="53" width="250" height="26" as="geometry" />
        </mxCell>
        <mxCell id="MnsjPkY1ZT94BCYLp9gL-80" value="GET/{cityId}/pollution/avg_id_n/{id}/{n}" style="text;strokeColor=none;fillColor=none;align=left;verticalAlign=top;spacingLeft=4;spacingRight=4;overflow=hidden;rotatable=0;points=[[0,0.5],[1,0.5]];portConstraint=eastwest;whiteSpace=wrap;html=1;" vertex="1" parent="MnsjPkY1ZT94BCYLp9gL-77">
          <mxGeometry y="79" width="250" height="26" as="geometry" />
        </mxCell>
        <mxCell id="MnsjPkY1ZT94BCYLp9gL-85" value="GET/{cityId}/pollution/avg_t1_t2/{t1}/{t2}" style="text;strokeColor=none;fillColor=none;align=left;verticalAlign=top;spacingLeft=4;spacingRight=4;overflow=hidden;rotatable=0;points=[[0,0.5],[1,0.5]];portConstraint=eastwest;whiteSpace=wrap;html=1;" vertex="1" parent="MnsjPkY1ZT94BCYLp9gL-77">
          <mxGeometry y="105" width="250" height="26" as="geometry" />
        </mxCell>
        <mxCell id="MnsjPkY1ZT94BCYLp9gL-81" style="edgeStyle=orthogonalEdgeStyle;rounded=0;orthogonalLoop=1;jettySize=auto;html=1;exitX=0;exitY=0.5;exitDx=0;exitDy=0;entryX=1;entryY=0.5;entryDx=0;entryDy=0;" edge="1" parent="WIyWlLk6GJQsqaUBKTNV-1" source="MnsjPkY1ZT94BCYLp9gL-75" target="MnsjPkY1ZT94BCYLp9gL-57">
          <mxGeometry relative="1" as="geometry" />
        </mxCell>
        <mxCell id="MnsjPkY1ZT94BCYLp9gL-82" style="edgeStyle=orthogonalEdgeStyle;rounded=0;orthogonalLoop=1;jettySize=auto;html=1;exitX=1;exitY=0.5;exitDx=0;exitDy=0;entryX=-0.001;entryY=0.105;entryDx=0;entryDy=0;entryPerimeter=0;" edge="1" parent="WIyWlLk6GJQsqaUBKTNV-1" source="MnsjPkY1ZT94BCYLp9gL-10" target="MnsjPkY1ZT94BCYLp9gL-62">
          <mxGeometry relative="1" as="geometry">
            <Array as="points">
              <mxPoint x="850" y="513" />
              <mxPoint x="850" y="148" />
            </Array>
          </mxGeometry>
        </mxCell>
        <mxCell id="MnsjPkY1ZT94BCYLp9gL-83" style="edgeStyle=orthogonalEdgeStyle;rounded=0;orthogonalLoop=1;jettySize=auto;html=1;exitX=1;exitY=0.5;exitDx=0;exitDy=0;entryX=0;entryY=0.5;entryDx=0;entryDy=0;" edge="1" parent="WIyWlLk6GJQsqaUBKTNV-1" source="MnsjPkY1ZT94BCYLp9gL-11" target="MnsjPkY1ZT94BCYLp9gL-57">
          <mxGeometry relative="1" as="geometry">
            <Array as="points">
              <mxPoint x="920" y="539" />
              <mxPoint x="920" y="90" />
              <mxPoint x="970" y="90" />
            </Array>
          </mxGeometry>
        </mxCell>
        <mxCell id="MnsjPkY1ZT94BCYLp9gL-86" value="Statistics" style="swimlane;fontStyle=1;align=center;verticalAlign=top;childLayout=stackLayout;horizontal=1;startSize=26;horizontalStack=0;resizeParent=1;resizeParentMax=0;resizeLast=0;collapsible=1;marginBottom=0;whiteSpace=wrap;html=1;strokeWidth=2;" vertex="1" parent="WIyWlLk6GJQsqaUBKTNV-1">
          <mxGeometry x="960" y="400" width="280" height="242" as="geometry" />
        </mxCell>
        <mxCell id="MnsjPkY1ZT94BCYLp9gL-87" value="- broker: StatisticsBroker" style="text;strokeColor=none;fillColor=none;align=left;verticalAlign=top;spacingLeft=4;spacingRight=4;overflow=hidden;rotatable=0;points=[[0,0.5],[1,0.5]];portConstraint=eastwest;whiteSpace=wrap;html=1;" vertex="1" parent="MnsjPkY1ZT94BCYLp9gL-86">
          <mxGeometry y="26" width="280" height="26" as="geometry" />
        </mxCell>
        <mxCell id="MnsjPkY1ZT94BCYLp9gL-93" value="- subscriber: StatisticsSubscriber" style="text;strokeColor=none;fillColor=none;align=left;verticalAlign=top;spacingLeft=4;spacingRight=4;overflow=hidden;rotatable=0;points=[[0,0.5],[1,0.5]];portConstraint=eastwest;whiteSpace=wrap;html=1;" vertex="1" parent="MnsjPkY1ZT94BCYLp9gL-86">
          <mxGeometry y="52" width="280" height="26" as="geometry" />
        </mxCell>
        <mxCell id="MnsjPkY1ZT94BCYLp9gL-103" value="- DB: StatisticsDB" style="text;strokeColor=none;fillColor=none;align=left;verticalAlign=top;spacingLeft=4;spacingRight=4;overflow=hidden;rotatable=0;points=[[0,0.5],[1,0.5]];portConstraint=eastwest;whiteSpace=wrap;html=1;" vertex="1" parent="MnsjPkY1ZT94BCYLp9gL-86">
          <mxGeometry y="78" width="280" height="26" as="geometry" />
        </mxCell>
        <mxCell id="MnsjPkY1ZT94BCYLp9gL-104" value="- validRobotIds: List&amp;lt;Integer&amp;gt;" style="text;strokeColor=none;fillColor=none;align=left;verticalAlign=top;spacingLeft=4;spacingRight=4;overflow=hidden;rotatable=0;points=[[0,0.5],[1,0.5]];portConstraint=eastwest;whiteSpace=wrap;html=1;" vertex="1" parent="MnsjPkY1ZT94BCYLp9gL-86">
          <mxGeometry y="104" width="280" height="26" as="geometry" />
        </mxCell>
        <mxCell id="MnsjPkY1ZT94BCYLp9gL-88" value="" style="line;strokeWidth=1;fillColor=none;align=left;verticalAlign=middle;spacingTop=-1;spacingLeft=3;spacingRight=3;rotatable=0;labelPosition=right;points=[];portConstraint=eastwest;strokeColor=inherit;" vertex="1" parent="MnsjPkY1ZT94BCYLp9gL-86">
          <mxGeometry y="130" width="280" height="8" as="geometry" />
        </mxCell>
        <mxCell id="MnsjPkY1ZT94BCYLp9gL-89" value="+ addMeasurement(MeasurementRecord)" style="text;strokeColor=none;fillColor=none;align=left;verticalAlign=top;spacingLeft=4;spacingRight=4;overflow=hidden;rotatable=0;points=[[0,0.5],[1,0.5]];portConstraint=eastwest;whiteSpace=wrap;html=1;" vertex="1" parent="MnsjPkY1ZT94BCYLp9gL-86">
          <mxGeometry y="138" width="280" height="26" as="geometry" />
        </mxCell>
        <mxCell id="MnsjPkY1ZT94BCYLp9gL-107" value="+ getAvgLastNByRobotId(id,n): double" style="text;strokeColor=none;fillColor=none;align=left;verticalAlign=top;spacingLeft=4;spacingRight=4;overflow=hidden;rotatable=0;points=[[0,0.5],[1,0.5]];portConstraint=eastwest;whiteSpace=wrap;html=1;" vertex="1" parent="MnsjPkY1ZT94BCYLp9gL-86">
          <mxGeometry y="164" width="280" height="26" as="geometry" />
        </mxCell>
        <mxCell id="MnsjPkY1ZT94BCYLp9gL-106" value="+ getAvgBetweenTimestamps(t1,t2): double" style="text;strokeColor=none;fillColor=none;align=left;verticalAlign=top;spacingLeft=4;spacingRight=4;overflow=hidden;rotatable=0;points=[[0,0.5],[1,0.5]];portConstraint=eastwest;whiteSpace=wrap;html=1;" vertex="1" parent="MnsjPkY1ZT94BCYLp9gL-86">
          <mxGeometry y="190" width="280" height="26" as="geometry" />
        </mxCell>
        <mxCell id="MnsjPkY1ZT94BCYLp9gL-105" value="+ setValidRobotIds(List&amp;lt;Integer&amp;gt;)" style="text;strokeColor=none;fillColor=none;align=left;verticalAlign=top;spacingLeft=4;spacingRight=4;overflow=hidden;rotatable=0;points=[[0,0.5],[1,0.5]];portConstraint=eastwest;whiteSpace=wrap;html=1;" vertex="1" parent="MnsjPkY1ZT94BCYLp9gL-86">
          <mxGeometry y="216" width="280" height="26" as="geometry" />
        </mxCell>
        <mxCell id="MnsjPkY1ZT94BCYLp9gL-94" value="RESTUtils" style="swimlane;fontStyle=1;align=center;verticalAlign=top;childLayout=stackLayout;horizontal=1;startSize=26;horizontalStack=0;resizeParent=1;resizeParentMax=0;resizeLast=0;collapsible=1;marginBottom=0;whiteSpace=wrap;html=1;" vertex="1" parent="WIyWlLk6GJQsqaUBKTNV-1">
          <mxGeometry x="970" y="260" width="160" height="34" as="geometry" />
        </mxCell>
        <mxCell id="MnsjPkY1ZT94BCYLp9gL-96" value="" style="line;strokeWidth=1;fillColor=none;align=left;verticalAlign=middle;spacingTop=-1;spacingLeft=3;spacingRight=3;rotatable=0;labelPosition=right;points=[];portConstraint=eastwest;strokeColor=inherit;" vertex="1" parent="MnsjPkY1ZT94BCYLp9gL-94">
          <mxGeometry y="26" width="160" height="8" as="geometry" />
        </mxCell>
        <mxCell id="MnsjPkY1ZT94BCYLp9gL-100" value="AdminServerThread" style="swimlane;fontStyle=1;align=center;verticalAlign=top;childLayout=stackLayout;horizontal=1;startSize=26;horizontalStack=0;resizeParent=1;resizeParentMax=0;resizeLast=0;collapsible=1;marginBottom=0;whiteSpace=wrap;html=1;" vertex="1" parent="WIyWlLk6GJQsqaUBKTNV-1">
          <mxGeometry x="970" y="310" width="160" height="34" as="geometry" />
        </mxCell>
        <mxCell id="MnsjPkY1ZT94BCYLp9gL-101" value="" style="line;strokeWidth=1;fillColor=none;align=left;verticalAlign=middle;spacingTop=-1;spacingLeft=3;spacingRight=3;rotatable=0;labelPosition=right;points=[];portConstraint=eastwest;strokeColor=inherit;" vertex="1" parent="MnsjPkY1ZT94BCYLp9gL-100">
          <mxGeometry y="26" width="160" height="8" as="geometry" />
        </mxCell>
        <mxCell id="MnsjPkY1ZT94BCYLp9gL-102" style="edgeStyle=orthogonalEdgeStyle;rounded=0;orthogonalLoop=1;jettySize=auto;html=1;exitX=1;exitY=0.5;exitDx=0;exitDy=0;entryX=0;entryY=0.25;entryDx=0;entryDy=0;" edge="1" parent="WIyWlLk6GJQsqaUBKTNV-1" source="MnsjPkY1ZT94BCYLp9gL-9" target="MnsjPkY1ZT94BCYLp9gL-100">
          <mxGeometry relative="1" as="geometry">
            <Array as="points">
              <mxPoint x="880" y="453" />
              <mxPoint x="880" y="319" />
            </Array>
          </mxGeometry>
        </mxCell>
        <mxCell id="MnsjPkY1ZT94BCYLp9gL-108" style="edgeStyle=orthogonalEdgeStyle;rounded=0;orthogonalLoop=1;jettySize=auto;html=1;exitX=1;exitY=0.5;exitDx=0;exitDy=0;entryX=0;entryY=0;entryDx=0;entryDy=0;" edge="1" parent="WIyWlLk6GJQsqaUBKTNV-1" source="MnsjPkY1ZT94BCYLp9gL-7" target="MnsjPkY1ZT94BCYLp9gL-86">
          <mxGeometry relative="1" as="geometry">
            <Array as="points">
              <mxPoint x="800" y="427" />
              <mxPoint x="800" y="380" />
              <mxPoint x="960" y="380" />
            </Array>
          </mxGeometry>
        </mxCell>
        <mxCell id="MnsjPkY1ZT94BCYLp9gL-109" value="StatisticsBroker" style="swimlane;fontStyle=1;align=center;verticalAlign=top;childLayout=stackLayout;horizontal=1;startSize=26;horizontalStack=0;resizeParent=1;resizeParentMax=0;resizeLast=0;collapsible=1;marginBottom=0;whiteSpace=wrap;html=1;" vertex="1" parent="WIyWlLk6GJQsqaUBKTNV-1">
          <mxGeometry x="1310" y="400" width="160" height="34" as="geometry" />
        </mxCell>
        <mxCell id="MnsjPkY1ZT94BCYLp9gL-110" value="" style="line;strokeWidth=1;fillColor=none;align=left;verticalAlign=middle;spacingTop=-1;spacingLeft=3;spacingRight=3;rotatable=0;labelPosition=right;points=[];portConstraint=eastwest;strokeColor=inherit;" vertex="1" parent="MnsjPkY1ZT94BCYLp9gL-109">
          <mxGeometry y="26" width="160" height="8" as="geometry" />
        </mxCell>
        <mxCell id="MnsjPkY1ZT94BCYLp9gL-111" style="edgeStyle=orthogonalEdgeStyle;rounded=0;orthogonalLoop=1;jettySize=auto;html=1;exitX=1;exitY=0.5;exitDx=0;exitDy=0;" edge="1" parent="WIyWlLk6GJQsqaUBKTNV-1" source="MnsjPkY1ZT94BCYLp9gL-87" target="MnsjPkY1ZT94BCYLp9gL-109">
          <mxGeometry relative="1" as="geometry" />
        </mxCell>
        <mxCell id="MnsjPkY1ZT94BCYLp9gL-116" value="StatisticsSubscriber" style="swimlane;fontStyle=1;align=center;verticalAlign=top;childLayout=stackLayout;horizontal=1;startSize=26;horizontalStack=0;resizeParent=1;resizeParentMax=0;resizeLast=0;collapsible=1;marginBottom=0;whiteSpace=wrap;html=1;" vertex="1" parent="WIyWlLk6GJQsqaUBKTNV-1">
          <mxGeometry x="1310" y="450" width="160" height="34" as="geometry" />
        </mxCell>
        <mxCell id="MnsjPkY1ZT94BCYLp9gL-117" value="" style="line;strokeWidth=1;fillColor=none;align=left;verticalAlign=middle;spacingTop=-1;spacingLeft=3;spacingRight=3;rotatable=0;labelPosition=right;points=[];portConstraint=eastwest;strokeColor=inherit;" vertex="1" parent="MnsjPkY1ZT94BCYLp9gL-116">
          <mxGeometry y="26" width="160" height="8" as="geometry" />
        </mxCell>
        <mxCell id="MnsjPkY1ZT94BCYLp9gL-118" style="edgeStyle=orthogonalEdgeStyle;rounded=0;orthogonalLoop=1;jettySize=auto;html=1;exitX=1;exitY=0.5;exitDx=0;exitDy=0;" edge="1" parent="WIyWlLk6GJQsqaUBKTNV-1" source="MnsjPkY1ZT94BCYLp9gL-93" target="MnsjPkY1ZT94BCYLp9gL-116">
          <mxGeometry relative="1" as="geometry" />
        </mxCell>
        <mxCell id="MnsjPkY1ZT94BCYLp9gL-119" value="StatisticsDB" style="swimlane;fontStyle=1;align=center;verticalAlign=top;childLayout=stackLayout;horizontal=1;startSize=26;horizontalStack=0;resizeParent=1;resizeParentMax=0;resizeLast=0;collapsible=1;marginBottom=0;whiteSpace=wrap;html=1;" vertex="1" parent="WIyWlLk6GJQsqaUBKTNV-1">
          <mxGeometry x="1280" y="504" width="280" height="164" as="geometry" />
        </mxCell>
        <mxCell id="MnsjPkY1ZT94BCYLp9gL-120" value="- measurmements: List&amp;lt;MeasurementRecord&amp;gt;" style="text;strokeColor=none;fillColor=none;align=left;verticalAlign=top;spacingLeft=4;spacingRight=4;overflow=hidden;rotatable=0;points=[[0,0.5],[1,0.5]];portConstraint=eastwest;whiteSpace=wrap;html=1;" vertex="1" parent="MnsjPkY1ZT94BCYLp9gL-119">
          <mxGeometry y="26" width="280" height="26" as="geometry" />
        </mxCell>
        <mxCell id="MnsjPkY1ZT94BCYLp9gL-121" value="" style="line;strokeWidth=1;fillColor=none;align=left;verticalAlign=middle;spacingTop=-1;spacingLeft=3;spacingRight=3;rotatable=0;labelPosition=right;points=[];portConstraint=eastwest;strokeColor=inherit;" vertex="1" parent="MnsjPkY1ZT94BCYLp9gL-119">
          <mxGeometry y="52" width="280" height="8" as="geometry" />
        </mxCell>
        <mxCell id="MnsjPkY1ZT94BCYLp9gL-122" value="+ addMeasurement(MeasurementRecord)" style="text;strokeColor=none;fillColor=none;align=left;verticalAlign=top;spacingLeft=4;spacingRight=4;overflow=hidden;rotatable=0;points=[[0,0.5],[1,0.5]];portConstraint=eastwest;whiteSpace=wrap;html=1;" vertex="1" parent="MnsjPkY1ZT94BCYLp9gL-119">
          <mxGeometry y="60" width="280" height="26" as="geometry" />
        </mxCell>
        <mxCell id="MnsjPkY1ZT94BCYLp9gL-133" value="+ getAvgLastNByRobotId" style="text;strokeColor=none;fillColor=none;align=left;verticalAlign=top;spacingLeft=4;spacingRight=4;overflow=hidden;rotatable=0;points=[[0,0.5],[1,0.5]];portConstraint=eastwest;whiteSpace=wrap;html=1;" vertex="1" parent="MnsjPkY1ZT94BCYLp9gL-119">
          <mxGeometry y="86" width="280" height="26" as="geometry" />
        </mxCell>
        <mxCell id="MnsjPkY1ZT94BCYLp9gL-132" value="+ getAvgBetweenTimestamps" style="text;strokeColor=none;fillColor=none;align=left;verticalAlign=top;spacingLeft=4;spacingRight=4;overflow=hidden;rotatable=0;points=[[0,0.5],[1,0.5]];portConstraint=eastwest;whiteSpace=wrap;html=1;" vertex="1" parent="MnsjPkY1ZT94BCYLp9gL-119">
          <mxGeometry y="112" width="280" height="26" as="geometry" />
        </mxCell>
        <mxCell id="MnsjPkY1ZT94BCYLp9gL-131" value="+ removeRecordsNotInValidRobotIds" style="text;strokeColor=none;fillColor=none;align=left;verticalAlign=top;spacingLeft=4;spacingRight=4;overflow=hidden;rotatable=0;points=[[0,0.5],[1,0.5]];portConstraint=eastwest;whiteSpace=wrap;html=1;" vertex="1" parent="MnsjPkY1ZT94BCYLp9gL-119">
          <mxGeometry y="138" width="280" height="26" as="geometry" />
        </mxCell>
        <mxCell id="MnsjPkY1ZT94BCYLp9gL-124" value="MeasurementRecord" style="swimlane;fontStyle=1;align=center;verticalAlign=top;childLayout=stackLayout;horizontal=1;startSize=26;horizontalStack=0;resizeParent=1;resizeParentMax=0;resizeLast=0;collapsible=1;marginBottom=0;whiteSpace=wrap;html=1;" vertex="1" parent="WIyWlLk6GJQsqaUBKTNV-1">
          <mxGeometry x="750" y="578" width="160" height="164" as="geometry" />
        </mxCell>
        <mxCell id="MnsjPkY1ZT94BCYLp9gL-125" value="- districtId: int" style="text;strokeColor=none;fillColor=none;align=left;verticalAlign=top;spacingLeft=4;spacingRight=4;overflow=hidden;rotatable=0;points=[[0,0.5],[1,0.5]];portConstraint=eastwest;whiteSpace=wrap;html=1;" vertex="1" parent="MnsjPkY1ZT94BCYLp9gL-124">
          <mxGeometry y="26" width="160" height="26" as="geometry" />
        </mxCell>
        <mxCell id="MnsjPkY1ZT94BCYLp9gL-138" value="- robotId: int" style="text;strokeColor=none;fillColor=none;align=left;verticalAlign=top;spacingLeft=4;spacingRight=4;overflow=hidden;rotatable=0;points=[[0,0.5],[1,0.5]];portConstraint=eastwest;whiteSpace=wrap;html=1;" vertex="1" parent="MnsjPkY1ZT94BCYLp9gL-124">
          <mxGeometry y="52" width="160" height="26" as="geometry" />
        </mxCell>
        <mxCell id="MnsjPkY1ZT94BCYLp9gL-137" value="- timestamp: long" style="text;strokeColor=none;fillColor=none;align=left;verticalAlign=top;spacingLeft=4;spacingRight=4;overflow=hidden;rotatable=0;points=[[0,0.5],[1,0.5]];portConstraint=eastwest;whiteSpace=wrap;html=1;" vertex="1" parent="MnsjPkY1ZT94BCYLp9gL-124">
          <mxGeometry y="78" width="160" height="26" as="geometry" />
        </mxCell>
        <mxCell id="MnsjPkY1ZT94BCYLp9gL-136" value="- type: String" style="text;strokeColor=none;fillColor=none;align=left;verticalAlign=top;spacingLeft=4;spacingRight=4;overflow=hidden;rotatable=0;points=[[0,0.5],[1,0.5]];portConstraint=eastwest;whiteSpace=wrap;html=1;" vertex="1" parent="MnsjPkY1ZT94BCYLp9gL-124">
          <mxGeometry y="104" width="160" height="26" as="geometry" />
        </mxCell>
        <mxCell id="MnsjPkY1ZT94BCYLp9gL-135" value="- value: double" style="text;strokeColor=none;fillColor=none;align=left;verticalAlign=top;spacingLeft=4;spacingRight=4;overflow=hidden;rotatable=0;points=[[0,0.5],[1,0.5]];portConstraint=eastwest;whiteSpace=wrap;html=1;" vertex="1" parent="MnsjPkY1ZT94BCYLp9gL-124">
          <mxGeometry y="130" width="160" height="26" as="geometry" />
        </mxCell>
        <mxCell id="MnsjPkY1ZT94BCYLp9gL-126" value="" style="line;strokeWidth=1;fillColor=none;align=left;verticalAlign=middle;spacingTop=-1;spacingLeft=3;spacingRight=3;rotatable=0;labelPosition=right;points=[];portConstraint=eastwest;strokeColor=inherit;" vertex="1" parent="MnsjPkY1ZT94BCYLp9gL-124">
          <mxGeometry y="156" width="160" height="8" as="geometry" />
        </mxCell>
        <mxCell id="MnsjPkY1ZT94BCYLp9gL-134" style="edgeStyle=orthogonalEdgeStyle;rounded=0;orthogonalLoop=1;jettySize=auto;html=1;exitX=1;exitY=0.5;exitDx=0;exitDy=0;entryX=0;entryY=0;entryDx=0;entryDy=0;" edge="1" parent="WIyWlLk6GJQsqaUBKTNV-1" source="MnsjPkY1ZT94BCYLp9gL-103" target="MnsjPkY1ZT94BCYLp9gL-119">
          <mxGeometry relative="1" as="geometry" />
        </mxCell>
        <mxCell id="MnsjPkY1ZT94BCYLp9gL-139" style="edgeStyle=orthogonalEdgeStyle;rounded=0;orthogonalLoop=1;jettySize=auto;html=1;exitX=0;exitY=0.5;exitDx=0;exitDy=0;entryX=1;entryY=0;entryDx=0;entryDy=0;" edge="1" parent="WIyWlLk6GJQsqaUBKTNV-1" source="MnsjPkY1ZT94BCYLp9gL-120" target="MnsjPkY1ZT94BCYLp9gL-124">
          <mxGeometry relative="1" as="geometry">
            <Array as="points">
              <mxPoint x="1260" y="543" />
              <mxPoint x="1260" y="680" />
              <mxPoint x="940" y="680" />
              <mxPoint x="940" y="578" />
            </Array>
          </mxGeometry>
        </mxCell>
        <mxCell id="MnsjPkY1ZT94BCYLp9gL-141" value="AdminClient" style="swimlane;fontStyle=1;align=center;verticalAlign=top;childLayout=stackLayout;horizontal=1;startSize=26;horizontalStack=0;resizeParent=1;resizeParentMax=0;resizeLast=0;collapsible=1;marginBottom=0;whiteSpace=wrap;html=1;" vertex="1" parent="WIyWlLk6GJQsqaUBKTNV-1">
          <mxGeometry x="120" y="490" width="160" height="34" as="geometry" />
        </mxCell>
        <mxCell id="MnsjPkY1ZT94BCYLp9gL-143" value="" style="line;strokeWidth=1;fillColor=none;align=left;verticalAlign=middle;spacingTop=-1;spacingLeft=3;spacingRight=3;rotatable=0;labelPosition=right;points=[];portConstraint=eastwest;strokeColor=inherit;" vertex="1" parent="MnsjPkY1ZT94BCYLp9gL-141">
          <mxGeometry y="26" width="160" height="8" as="geometry" />
        </mxCell>
      </root>
    </mxGraphModel>
  </diagram>
</mxfile>
